<svg width="1067" height="353" viewBox="0 0 1067 353" fill="none" xmlns="http://www.w3.org/2000/svg">
<path d="M923.451 3.41486V75.2945C923.451 90.7665 931.321 105.184 944.341 113.545L977.958 137.894C986.871 143.619 992.253 153.476 992.253 164.068V172.184C992.253 174.416 989.777 175.764 987.901 174.563L923.451 130.403C905.551 118.56 897.521 99.4833 897.521 82.9202V-8.28108C897.521 -13.136 900.672 -17.4269 905.294 -18.8859L923.451 -24.6235L973.814 -40.5123C977.161 -41.5666 980.569 -39.0656 980.569 -35.5593V-14.5827L923.451 3.42711V3.41486Z" fill="url(#paint0_linear_3957_160)"/>
<path d="M1080.34 2.18292V74.0626C1080.34 89.5346 1072.47 103.952 1059.45 112.313L1025.83 136.662C1016.92 142.387 1011.54 152.244 1011.54 162.836V170.952C1011.54 173.184 1014.01 174.532 1015.89 173.331L1080.34 129.171C1098.24 117.328 1106.27 98.2513 1106.27 81.6882V-9.51301C1106.27 -14.3679 1103.12 -18.6589 1098.5 -20.1178L1080.34 -25.8554L1029.98 -41.7442C1026.63 -42.7986 1023.22 -40.2976 1023.22 -36.7912V-15.8146L1080.34 2.19518V2.18292Z" fill="url(#paint1_linear_3957_160)"/>
<path d="M701.547 3.41486V75.2945C701.547 90.7665 709.418 105.184 722.438 113.545L756.054 137.894C764.967 143.619 770.349 153.476 770.349 164.068V172.184C770.349 174.416 767.873 175.764 765.997 174.563L701.547 130.403C683.647 118.56 675.617 99.4833 675.617 82.9202V-8.28108C675.617 -13.136 678.768 -17.4269 683.39 -18.8859L701.547 -24.6235L751.91 -40.5123C755.257 -41.5666 758.666 -39.0656 758.666 -35.5593V-14.5827L701.547 3.42711V3.41486Z" fill="url(#paint2_linear_3957_160)"/>
<path d="M858.436 2.18292V74.0626C858.436 89.5346 850.566 103.952 837.546 112.313L803.929 136.662C795.016 142.387 789.634 152.244 789.634 162.836V170.952C789.634 173.184 792.111 174.532 793.986 173.331L858.436 129.171C876.336 117.328 884.366 98.2513 884.366 81.6882V-9.51301C884.366 -14.3679 881.215 -18.6589 876.593 -20.1178L858.436 -25.8554L808.073 -41.7442C804.726 -42.7986 801.318 -40.2976 801.318 -36.7912V-15.8146L858.436 2.19518V2.18292Z" fill="url(#paint3_linear_3957_160)"/>
<path d="M475.965 3.41486V75.2945C475.965 90.7665 483.836 105.184 496.856 113.545L530.472 137.894C539.385 143.619 544.767 153.476 544.767 164.068V172.184C544.767 174.416 542.291 175.764 540.415 174.563L475.965 130.403C458.066 118.56 450.035 99.4833 450.035 82.9202V-8.28108C450.035 -13.136 453.186 -17.4269 457.808 -18.8859L475.965 -24.6235L526.329 -40.5123C529.675 -41.5666 533.084 -39.0656 533.084 -35.5593V-14.5827L475.965 3.42711V3.41486Z" fill="url(#paint4_linear_3957_160)"/>
<path d="M632.855 2.18292V74.0626C632.855 89.5346 624.984 103.952 611.964 112.313L578.347 136.662C569.434 142.387 564.052 152.244 564.052 162.836V170.952C564.052 173.184 566.529 174.532 568.405 173.331L632.855 129.171C650.754 117.328 658.784 98.2513 658.784 81.6882V-9.51301C658.784 -14.3679 655.634 -18.6589 651.012 -20.1178L632.855 -25.8554L582.491 -41.7442C579.144 -42.7986 575.736 -40.2976 575.736 -36.7912V-15.8146L632.855 2.19518V2.18292Z" fill="url(#paint5_linear_3957_160)"/>
<path d="M251.547 3.41486V75.2945C251.547 90.7665 259.418 105.184 272.438 113.545L306.054 137.894C314.967 143.619 320.349 153.476 320.349 164.068V172.184C320.349 174.416 317.873 175.764 315.997 174.563L251.547 130.403C233.647 118.56 225.617 99.4833 225.617 82.9202V-8.28108C225.617 -13.136 228.768 -17.4269 233.39 -18.8859L251.547 -24.6235L301.91 -40.5123C305.257 -41.5666 308.666 -39.0656 308.666 -35.5593V-14.5827L251.547 3.42711V3.41486Z" fill="url(#paint6_linear_3957_160)"/>
<path d="M408.436 2.18292V74.0626C408.436 89.5346 400.566 103.952 387.546 112.313L353.929 136.662C345.016 142.387 339.634 152.244 339.634 162.836V170.952C339.634 173.184 342.111 174.532 343.986 173.331L408.436 129.171C426.336 117.328 434.366 98.2513 434.366 81.6882V-9.51301C434.366 -14.3679 431.215 -18.6589 426.593 -20.1178L408.436 -25.8554L358.073 -41.7442C354.726 -42.7986 351.318 -40.2976 351.318 -36.7912V-15.8146L408.436 2.19518V2.18292Z" fill="url(#paint7_linear_3957_160)"/>
<path d="M25.965 3.41486V75.2945C25.965 90.7665 33.8358 105.184 46.8558 113.545L80.4724 137.894C89.3854 143.619 94.7674 153.476 94.7674 164.068V172.184C94.7674 174.416 92.291 175.764 90.4152 174.563L25.965 130.403C8.06556 118.56 0.0353394 99.4833 0.0353394 82.9202V-8.28108C0.0353394 -13.136 3.18613 -17.4269 7.80811 -18.8859L25.965 -24.6235L76.3286 -40.5123C79.6755 -41.5666 83.0838 -39.0656 83.0838 -35.5593V-14.5827L25.965 3.42711V3.41486Z" fill="url(#paint8_linear_3957_160)"/>
<path d="M182.855 2.18292V74.0626C182.855 89.5346 174.984 103.952 161.964 112.313L128.347 136.662C119.434 142.387 114.052 152.244 114.052 162.836V170.952C114.052 173.184 116.529 174.532 118.404 173.331L182.855 129.171C200.754 117.328 208.784 98.2513 208.784 81.6882V-9.51301C208.784 -14.3679 205.634 -18.6589 201.012 -20.1178L182.855 -25.8554L132.491 -41.7442C129.144 -42.7986 125.736 -40.2976 125.736 -36.7912V-15.8146L182.855 2.19518V2.18292Z" fill="url(#paint9_linear_3957_160)"/>
<path d="M1033.45 306.61V234.73C1033.45 219.258 1041.32 204.84 1054.34 196.479L1087.96 172.131C1096.87 166.406 1102.25 156.549 1102.25 145.956V137.84C1102.25 135.609 1099.78 134.26 1097.9 135.462L1033.45 179.622C1015.55 191.465 1007.52 210.541 1007.52 227.104V318.305C1007.52 323.16 1010.67 327.451 1015.29 328.91L1033.45 334.648L1083.81 350.537C1087.16 351.591 1090.57 349.09 1090.57 345.584V324.607L1033.45 306.597V306.61Z" fill="url(#paint10_linear_3957_160)"/>
<path d="M811.547 306.61V234.73C811.547 219.258 819.418 204.84 832.438 196.479L866.054 172.131C874.967 166.406 880.349 156.549 880.349 145.956V137.84C880.349 135.609 877.873 134.26 875.997 135.462L811.547 179.622C793.647 191.465 785.617 210.541 785.617 227.104V318.305C785.617 323.16 788.768 327.451 793.39 328.91L811.547 334.648L861.91 350.537C865.257 351.591 868.666 349.09 868.666 345.584V324.607L811.547 306.597V306.61Z" fill="url(#paint11_linear_3957_160)"/>
<path d="M968.436 307.841V235.962C968.436 220.49 960.566 206.072 947.546 197.711L913.929 173.363C905.016 167.637 899.634 157.781 899.634 147.188V139.072C899.634 136.841 902.111 135.492 903.986 136.694L968.436 180.854C986.336 192.697 994.366 211.773 994.366 228.336V319.537C994.366 324.392 991.215 328.683 986.593 330.142L968.436 335.88L918.073 351.769C914.726 352.823 911.318 350.322 911.318 346.816V325.839L968.436 307.829V307.841Z" fill="url(#paint12_linear_3957_160)"/>
<path d="M585.965 306.61V234.73C585.965 219.258 593.836 204.84 606.856 196.479L640.472 172.131C649.385 166.406 654.767 156.549 654.767 145.956V137.84C654.767 135.609 652.291 134.26 650.415 135.462L585.965 179.622C568.066 191.465 560.035 210.541 560.035 227.104V318.305C560.035 323.16 563.186 327.451 567.808 328.91L585.965 334.648L636.329 350.537C639.675 351.591 643.084 349.09 643.084 345.584V324.607L585.965 306.597V306.61Z" fill="url(#paint13_linear_3957_160)"/>
<path d="M742.855 307.841V235.962C742.855 220.49 734.984 206.072 721.964 197.711L688.347 173.363C679.434 167.637 674.052 157.781 674.052 147.188V139.072C674.052 136.841 676.529 135.492 678.405 136.694L742.855 180.854C760.754 192.697 768.784 211.773 768.784 228.336V319.537C768.784 324.392 765.634 328.683 761.012 330.142L742.855 335.88L692.491 351.769C689.144 352.823 685.736 350.322 685.736 346.816V325.839L742.855 307.829V307.841Z" fill="url(#paint14_linear_3957_160)"/>
<path d="M361.547 306.61V234.73C361.547 219.258 369.418 204.84 382.438 196.479L416.054 172.131C424.967 166.406 430.349 156.549 430.349 145.956V137.84C430.349 135.609 427.873 134.26 425.997 135.462L361.547 179.622C343.647 191.465 335.617 210.541 335.617 227.104V318.305C335.617 323.16 338.768 327.451 343.39 328.91L361.547 334.648L411.91 350.537C415.257 351.591 418.666 349.09 418.666 345.584V324.607L361.547 306.597V306.61Z" fill="url(#paint15_linear_3957_160)"/>
<path d="M518.436 307.841V235.962C518.436 220.49 510.566 206.072 497.546 197.711L463.929 173.363C455.016 167.637 449.634 157.781 449.634 147.188V139.072C449.634 136.841 452.111 135.492 453.986 136.694L518.436 180.854C536.336 192.697 544.366 211.773 544.366 228.336V319.537C544.366 324.392 541.215 328.683 536.593 330.142L518.436 335.88L468.073 351.769C464.726 352.823 461.318 350.322 461.318 346.816V325.839L518.436 307.829V307.841Z" fill="url(#paint16_linear_3957_160)"/>
<path d="M135.965 306.61V234.73C135.965 219.258 143.836 204.84 156.856 196.479L190.472 172.131C199.385 166.406 204.767 156.549 204.767 145.956V137.84C204.767 135.609 202.291 134.26 200.415 135.462L135.965 179.622C118.066 191.465 110.035 210.541 110.035 227.104V318.305C110.035 323.16 113.186 327.451 117.808 328.91L135.965 334.648L186.329 350.537C189.676 351.591 193.084 349.09 193.084 345.584V324.607L135.965 306.597V306.61Z" fill="url(#paint17_linear_3957_160)"/>
<path d="M292.855 307.841V235.962C292.855 220.49 284.984 206.072 271.964 197.711L238.347 173.363C229.434 167.637 224.052 157.781 224.052 147.188V139.072C224.052 136.841 226.529 135.492 228.404 136.694L292.855 180.854C310.754 192.697 318.784 211.773 318.784 228.336V319.537C318.784 324.392 315.634 328.683 311.012 330.142L292.855 335.88L242.491 351.769C239.144 352.823 235.736 350.322 235.736 346.816V325.839L292.855 307.829V307.841Z" fill="url(#paint18_linear_3957_160)"/>
<defs>
<linearGradient id="paint0_linear_3957_160" x1="944.887" y1="-40.7559" x2="944.887" y2="175.012" gradientUnits="userSpaceOnUse">
<stop stop-color="white" stop-opacity="0.31"/>
<stop offset="1" stop-color="white" stop-opacity="0"/>
</linearGradient>
<linearGradient id="paint1_linear_3957_160" x1="1058.9" y1="-41.9878" x2="1058.9" y2="173.78" gradientUnits="userSpaceOnUse">
<stop stop-color="white" stop-opacity="0.31"/>
<stop offset="1" stop-color="white" stop-opacity="0"/>
</linearGradient>
<linearGradient id="paint2_linear_3957_160" x1="722.983" y1="-40.7559" x2="722.983" y2="175.012" gradientUnits="userSpaceOnUse">
<stop stop-color="white" stop-opacity="0.31"/>
<stop offset="1" stop-color="white" stop-opacity="0"/>
</linearGradient>
<linearGradient id="paint3_linear_3957_160" x1="837" y1="-41.9878" x2="837" y2="173.78" gradientUnits="userSpaceOnUse">
<stop stop-color="white" stop-opacity="0.31"/>
<stop offset="1" stop-color="white" stop-opacity="0"/>
</linearGradient>
<linearGradient id="paint4_linear_3957_160" x1="497.401" y1="-40.7559" x2="497.401" y2="175.012" gradientUnits="userSpaceOnUse">
<stop stop-color="white" stop-opacity="0.31"/>
<stop offset="1" stop-color="white" stop-opacity="0"/>
</linearGradient>
<linearGradient id="paint5_linear_3957_160" x1="611.418" y1="-41.9878" x2="611.418" y2="173.78" gradientUnits="userSpaceOnUse">
<stop stop-color="white" stop-opacity="0.31"/>
<stop offset="1" stop-color="white" stop-opacity="0"/>
</linearGradient>
<linearGradient id="paint6_linear_3957_160" x1="272.983" y1="-40.7559" x2="272.983" y2="175.012" gradientUnits="userSpaceOnUse">
<stop stop-color="white" stop-opacity="0.31"/>
<stop offset="1" stop-color="white" stop-opacity="0"/>
</linearGradient>
<linearGradient id="paint7_linear_3957_160" x1="387" y1="-41.9878" x2="387" y2="173.78" gradientUnits="userSpaceOnUse">
<stop stop-color="white" stop-opacity="0.31"/>
<stop offset="1" stop-color="white" stop-opacity="0"/>
</linearGradient>
<linearGradient id="paint8_linear_3957_160" x1="47.4014" y1="-40.7559" x2="47.4014" y2="175.012" gradientUnits="userSpaceOnUse">
<stop stop-color="white" stop-opacity="0.31"/>
<stop offset="1" stop-color="white" stop-opacity="0"/>
</linearGradient>
<linearGradient id="paint9_linear_3957_160" x1="161.418" y1="-41.9878" x2="161.418" y2="173.78" gradientUnits="userSpaceOnUse">
<stop stop-color="white" stop-opacity="0.31"/>
<stop offset="1" stop-color="white" stop-opacity="0"/>
</linearGradient>
<linearGradient id="paint10_linear_3957_160" x1="1054.89" y1="350.78" x2="1054.89" y2="135.012" gradientUnits="userSpaceOnUse">
<stop stop-color="white" stop-opacity="0"/>
<stop offset="1" stop-color="white" stop-opacity="0.11"/>
</linearGradient>
<linearGradient id="paint11_linear_3957_160" x1="832.983" y1="350.78" x2="832.983" y2="135.012" gradientUnits="userSpaceOnUse">
<stop stop-color="white" stop-opacity="0"/>
<stop offset="1" stop-color="white" stop-opacity="0.11"/>
</linearGradient>
<linearGradient id="paint12_linear_3957_160" x1="947" y1="352.012" x2="947" y2="136.244" gradientUnits="userSpaceOnUse">
<stop stop-color="white" stop-opacity="0"/>
<stop offset="1" stop-color="white" stop-opacity="0.11"/>
</linearGradient>
<linearGradient id="paint13_linear_3957_160" x1="607.401" y1="350.78" x2="607.401" y2="135.012" gradientUnits="userSpaceOnUse">
<stop stop-color="white" stop-opacity="0"/>
<stop offset="1" stop-color="white" stop-opacity="0.11"/>
</linearGradient>
<linearGradient id="paint14_linear_3957_160" x1="721.418" y1="352.012" x2="721.418" y2="136.244" gradientUnits="userSpaceOnUse">
<stop stop-color="white" stop-opacity="0"/>
<stop offset="1" stop-color="white" stop-opacity="0.11"/>
</linearGradient>
<linearGradient id="paint15_linear_3957_160" x1="382.983" y1="350.78" x2="382.983" y2="135.012" gradientUnits="userSpaceOnUse">
<stop stop-color="white" stop-opacity="0"/>
<stop offset="1" stop-color="white" stop-opacity="0.11"/>
</linearGradient>
<linearGradient id="paint16_linear_3957_160" x1="497" y1="352.012" x2="497" y2="136.244" gradientUnits="userSpaceOnUse">
<stop stop-color="white" stop-opacity="0"/>
<stop offset="1" stop-color="white" stop-opacity="0.11"/>
</linearGradient>
<linearGradient id="paint17_linear_3957_160" x1="157.401" y1="350.78" x2="157.401" y2="135.012" gradientUnits="userSpaceOnUse">
<stop stop-color="white" stop-opacity="0"/>
<stop offset="1" stop-color="white" stop-opacity="0.11"/>
</linearGradient>
<linearGradient id="paint18_linear_3957_160" x1="271.418" y1="352.012" x2="271.418" y2="136.244" gradientUnits="userSpaceOnUse">
<stop stop-color="white" stop-opacity="0"/>
<stop offset="1" stop-color="white" stop-opacity="0.11"/>
</linearGradient>
</defs>
</svg>
