<svg width="457" height="501" viewBox="0 0 457 501" fill="none" xmlns="http://www.w3.org/2000/svg">
<path d="M59.7472 104.617V270.242C59.7472 305.893 77.8832 339.114 107.884 358.38L185.343 414.483C205.881 427.676 218.282 450.388 218.282 474.795V493.496C218.282 498.638 212.576 501.745 208.254 498.977L59.7472 397.223C18.5033 369.934 0 325.978 0 287.813V77.6673C0 66.4806 7.26007 56.5933 17.91 53.2317L175.795 3.4C183.507 0.970565 191.36 6.73339 191.36 14.8127V63.1472L59.7472 104.645V104.617Z" fill="black"/>
<path d="M396.817 101.778V267.404C396.817 303.054 378.681 336.275 348.68 355.541L271.221 411.644C250.683 424.837 238.282 447.549 238.282 471.957V490.658C238.282 495.799 243.988 498.906 248.31 496.138L396.817 394.384C438.061 367.095 456.564 323.139 456.564 284.975V74.8285C456.564 63.6418 449.304 53.7546 438.654 50.3929L280.769 0.56121C273.057 -1.86823 265.204 3.8946 265.204 11.9739V60.3084L396.817 101.807V101.778Z" fill="black"/>
</svg>
